<?xml version="1.0" encoding="UTF-8" standalone="no"?>
<!-- Generator: Adobe Illustrator 24.1.2, SVG Export Plug-In  -->

<svg
   version="1.1"
   x="0px"
   y="0px"
   width="1200"
   height="1200"
   viewBox="0 0 1200 1200"
   style="overflow:visible"
   xml:space="preserve"
   id="svg31"
   xmlns="http://www.w3.org/2000/svg"
   xmlns:svg="http://www.w3.org/2000/svg">
<style
   type="text/css"
   id="style2">
	.st0{fill:#FFFFFF;stroke:#000000;stroke-width:0.6435;stroke-linecap:square;stroke-miterlimit:14.1732;}
</style>
<defs
   id="defs4">
</defs>
<rect
   style="fill:#ffffff;stroke:none;stroke-width:20.1385;stroke-linecap:round"
   id="rect75"
   width="1200"
   height="1200"
   x="0"
   y="0" /><g
   id="g29"
   transform="matrix(4.5722626,0,0,4.5722626,31.073112,416.82724)">
	<path
   id="path66_2_"
   d="m 213.38,26.45 c 1.03,-0.28 1.98,-1.07 2.45,-2.05 l 0.37,-0.77 0.45,1.56 c 0.25,0.86 0.45,1.95 0.46,2.43 0.01,0.48 0.02,0.93 0.04,1 0.06,0.39 1,-0.51 1.38,-1.33 0.35,-0.74 0.39,-1.15 0.21,-1.85 l -0.23,-0.91 0.43,0.35 c 1.77,1.45 3.62,2.13 5.77,2.13 1.14,0 1.19,-0.03 0.65,-0.3 -0.58,-0.3 -1.54,-1.57 -1.4,-1.85 0.04,-0.08 0.93,0.26 1.97,0.76 1.74,0.84 2.01,0.91 3.14,0.81 1.69,-0.15 7.15,-2.23 9.69,-3.7 2.17,-1.26 5.43,-3.58 5.35,-3.82 -0.02,-0.08 -0.37,-0.12 -0.75,-0.11 -0.41,0.02 -1.19,-0.21 -1.87,-0.54 l -1.16,-0.57 1.27,0.17 c 2.57,0.34 3.94,-0.14 5.28,-1.86 2.28,-2.91 2.61,-5.62 0.93,-7.54 -1.19,-1.36 -3.19,-1.72 -5.62,-1.01 -1.87,0.54 -3.01,1.46 -3.65,2.91 -0.29,0.67 -0.56,1.52 -0.58,1.9 -0.02,0.38 -0.11,0.71 -0.19,0.73 -0.26,0.09 -0.31,-1.68 -0.08,-2.49 0.13,-0.44 0.17,-0.84 0.09,-0.88 -0.08,-0.04 -0.99,0.38 -2.01,0.93 -1.03,0.55 -3.1,1.55 -4.59,2.22 -4.89,2.2 -5.26,2.4 -6.18,3.32 -0.5,0.5 -1.14,1.35 -1.42,1.89 -0.28,0.54 -0.57,0.95 -0.66,0.91 -0.16,-0.08 0.02,-1.4 0.32,-2.3 0.16,-0.46 0,-0.42 -1.27,0.37 -0.79,0.49 -1.94,1.46 -2.54,2.15 l -1.09,1.25 -0.06,-1.09 c -0.06,-1.14 -0.57,-2.15 -1.25,-2.48 -0.4,-0.19 -0.4,-0.19 -0.34,0.63 0.06,0.86 -0.33,3.95 -0.52,4.02 -0.06,0.02 -0.24,-0.23 -0.4,-0.56 -0.55,-1.12 -2.37,-2.54 -2.61,-2.03 -0.06,0.11 0.03,0.26 0.18,0.33 0.27,0.13 0.72,1.55 0.8,2.48 0.03,0.45 0.21,0.46 2.61,0.29 6.48,-0.47 11.94,-1.81 18.6,-4.56 1.21,-0.5 1.9,-0.71 1.55,-0.48 -5.82,3.87 -13.37,6.22 -20.49,6.38 -1.98,0.04 -2.27,0.11 -2.33,0.52 -0.14,1.13 -0.58,2.08 -1.12,2.42 -0.7,0.45 -0.6,0.5 0.42,0.22 z" />
	<path
   id="path79-6_2_"
   class="st0"
   d="m 158.55,17.75 1.84,8.68 c -0.82,0.57 -1.57,1.22 -2.25,1.95 l -8.34,-3.03 5.93,6.6 c -0.42,0.9 -0.75,1.85 -0.98,2.82 l -8.73,1.55 8.43,2.75 c 0.04,0.5 0.11,0.99 0.2,1.48 0.1,0.49 0.23,0.97 0.38,1.44 l -6.79,5.71 8.68,-1.84 c 0.57,0.82 1.22,1.57 1.95,2.25 l -3.03,8.34 6.6,-5.93 c 0.9,0.42 1.85,0.75 2.82,0.97 l 1.55,8.73 2.75,-8.43 c 0.5,-0.04 0.99,-0.11 1.48,-0.2 0.49,-0.1 0.97,-0.23 1.44,-0.38 l 5.71,6.79 -1.84,-8.68 c 0.82,-0.57 1.57,-1.22 2.25,-1.95 l 8.34,3.03 -5.93,-6.6 c 0.42,-0.9 0.75,-1.85 0.98,-2.82 l 8.73,-1.55 -8.43,-2.75 c -0.04,-0.5 -0.11,-0.99 -0.2,-1.48 -0.1,-0.49 -0.23,-0.97 -0.38,-1.44 l 6.79,-5.71 -8.68,1.84 c -0.57,-0.82 -1.22,-1.57 -1.95,-2.25 l 3.03,-8.34 -6.6,5.93 c -0.9,-0.42 -1.85,-0.75 -2.82,-0.98 l -1.55,-8.73 -2.75,8.43 c -0.5,0.04 -0.99,0.11 -1.48,0.2 -0.49,0.1 -0.97,0.23 -1.44,0.38 z" />
	<path
   id="path81-7_2_"
   d="m 73.24,46.47 c -0.05,0.47 -0.47,1.32 -1.27,2.54 -0.76,1.23 -1.85,2.62 -3.28,4.17 -1.39,1.56 -2.93,3.04 -4.62,4.45 -1.65,1.37 -3.52,2.49 -5.63,3.34 -2.11,0.85 -4.12,1.18 -6.04,0.98 -4.74,-0.49 -8.27,-3.9 -10.58,-10.24 -0.31,-0.82 -0.23,-3.51 0.24,-8.05 0.84,-8.19 1.8,-13.61 2.87,-16.27 1.35,-3.5 4.09,-6.41 8.2,-8.71 4.12,-2.35 7.91,-3.34 11.35,-2.99 1.8,0.19 3.39,0.94 4.75,2.27 1.41,1.29 2.04,2.65 1.9,4.06 -0.05,0.51 -0.37,0.73 -0.96,0.67 -0.43,-0.05 -0.87,-0.23 -1.31,-0.55 -0.44,-0.32 -0.76,-0.71 -0.95,-1.17 -0.3,-0.9 -0.87,-1.4 -1.69,-1.48 -2.04,-0.21 -4.58,0.22 -7.62,1.29 -3,1.08 -5.35,2.38 -7.05,3.9 -1.44,1.28 -2.64,3.35 -3.61,6.22 -0.97,2.87 -1.76,7.28 -2.37,13.23 -0.29,2.82 -0.16,5.15 0.41,6.99 0.56,1.84 1.49,3.38 2.79,4.62 1.3,1.24 2.69,1.94 4.18,2.09 1.02,0.1 2.49,-0.18 4.42,-0.85 1.93,-0.67 3.31,-1.38 4.14,-2.13 l 3.31,-2.69 c 1.03,-0.8 2.13,-1.86 3.3,-3.16 1.21,-1.34 2.17,-2.41 2.88,-3.21 0.75,-0.79 1.35,-1.17 1.78,-1.12 0.42,0.07 0.58,0.66 0.46,1.8 z" />
	<path
   id="path83-5_2_"
   d="m 74.18,60.25 c 0,-0.59 0.41,-1.48 1.23,-2.66 0.96,-2.88 2.93,-4.98 3.76,-7.28 0.74,-1.97 1.39,-3.29 1.94,-3.96 0.55,-0.63 1.16,-1.7 1.82,-3.2 0.66,-1.5 1.95,-4.77 3.86,-9.82 1.21,-3.15 2.89,-6.96 5.04,-11.42 2.15,-4.46 3.48,-6.86 3.99,-7.22 0.47,-0.28 0.79,-0.42 0.94,-0.42 0.28,0 0.67,0.17 1.18,0.53 0.43,0.31 1.29,2.54 2.56,6.67 1.31,4.13 1.97,6.79 1.98,7.97 0.04,0.79 0.42,2.58 1.14,5.37 0.72,2.75 1.22,4.94 1.5,6.55 0.24,1.61 0.86,4.17 1.86,7.67 1.04,3.46 1.55,5.61 1.56,6.43 0,0.83 -0.27,1.24 -0.82,1.24 -0.43,0 -1.04,-0.21 -1.83,-0.64 -0.36,-0.2 -0.65,-0.41 -0.89,-0.65 -0.24,-0.23 -0.43,-0.49 -0.59,-0.77 -0.12,-0.28 -0.26,-0.71 -0.42,-1.3 -0.16,-0.59 -0.3,-1.16 -0.42,-1.71 -0.12,-0.55 -0.32,-1.44 -0.6,-2.66 -0.24,-1.22 -0.5,-2.4 -0.78,-3.54 l -1.14,-4.66 -2.89,0.36 c -2.13,0.32 -4.47,0.59 -7.03,0.79 L 87,42.31 85.3,45.56 c -3.17,5.96 -5.3,10.28 -6.39,12.96 -0.9,2.13 -1.86,3.2 -2.88,3.2 -0.43,0 -0.85,-0.11 -1.24,-0.35 -0.41,-0.24 -0.6,-0.61 -0.61,-1.12 z M 99.79,35.82 c 0,-1.06 -0.47,-3.62 -1.39,-7.67 -0.88,-4.09 -1.54,-6.14 -1.97,-6.14 -0.31,0 -1.33,1.76 -3.05,5.27 -1.68,3.47 -3.05,6.63 -4.1,9.46 l -0.7,1.83 4.66,-0.37 c 2.87,-0.25 4.68,-0.49 5.43,-0.73 0.75,-0.27 1.13,-0.82 1.12,-1.65 z" />
	<path
   id="path85-3_2_"
   d="m 111.86,19.81 c 0.03,-0.67 1,-1.96 2.88,-3.86 1.88,-1.91 3.06,-2.85 3.53,-2.82 1.49,0.08 4.74,0.58 9.74,1.49 5,0.91 7.98,1.55 8.94,1.92 2.59,0.89 3.81,2.76 3.65,5.59 -0.08,1.34 -0.48,2.69 -1.23,4.07 -0.71,1.34 -1.48,2.46 -2.32,3.36 -2.19,2.6 -4.55,4.92 -6.92,6.3 -2.32,1.33 -4.37,2.4 -6.15,3.21 -1.46,0.71 -2.19,1.16 -2.21,1.36 0,0.08 0.71,0.41 2.13,1.01 1.47,0.56 3.22,1.3 5.26,2.24 2.04,0.94 3.6,1.84 4.7,2.69 2.02,1.5 4.42,2.66 5.74,4.22 1.19,1.33 1.77,2.27 1.74,2.82 -0.06,0.98 -0.44,1.45 -1.14,1.42 -0.63,-0.03 -1.61,-0.44 -2.95,-1.23 -1.3,-0.82 -3.09,-1.93 -5.38,-3.32 -2.29,-1.43 -4.55,-2.66 -6.78,-3.69 l -4.5,-2.08 -0.15,6.91 c -0.01,1.02 -0.08,2.5 -0.19,4.43 -0.06,0.94 -0.19,1.61 -0.41,1.99 -0.22,0.42 -0.67,0.61 -1.33,0.58 -1.49,-0.08 -2.11,-2.52 -1.84,-7.32 0.42,-14 0.3,-9.36 0.14,-20.52 -0.03,-3.59 -0.15,-6.08 -0.35,-7.47 -0.16,-1.43 -0.45,-2.15 -0.88,-2.18 -0.12,0 -0.36,0.12 -0.73,0.37 -0.37,0.25 -0.81,0.37 -1.32,0.34 -0.47,-0.02 -0.88,-0.21 -1.21,-0.54 -0.34,-0.36 -0.49,-0.78 -0.46,-1.29 z m 25.28,1.7 c 0.01,-0.16 -0.04,-0.28 -0.16,-0.36 -0.11,-0.12 -0.5,-0.3 -1.15,-0.54 -0.66,-0.27 -1.64,-0.64 -2.96,-1.11 -2.63,-0.9 -5.32,-1.42 -8.08,-1.57 l -4.25,-0.24 0.24,3.21 c 0.07,0.79 0.16,2.47 0.25,5.04 0.1,2.53 0.19,4.78 0.28,6.76 0.09,1.94 0.17,2.91 0.25,2.91 0.55,0.03 2.04,-0.54 4.47,-1.7 2.43,-1.17 4.14,-2.16 5.13,-2.97 1.07,-0.85 2.32,-2.41 3.75,-4.7 1.44,-2.29 2.18,-3.87 2.23,-4.73 z" />
	<path
   id="path87-5_2_"
   d="m 207.84,21.72 c -0.89,0.19 -1.8,0.37 -2.62,0.79 -1,0.52 -1.99,1.09 -2.83,1.84 -1.21,0.99 -2.38,2.05 -3.36,3.28 -1.25,1.6 -2.48,3.25 -3.25,5.14 -0.25,0.52 -0.32,1.1 -0.48,1.65 -0.04,0.49 -0.14,0.97 -0.14,1.46 0.12,0.27 0.07,0.58 0.25,0.83 0.4,0.98 1.16,1.75 1.82,2.55 1.14,1.09 2.3,2.15 3.49,3.18 1.29,0.83 2.55,1.7 3.93,2.37 2.52,1.3 5.24,2.17 7.9,3.14 0.68,0.22 1.36,0.47 1.99,0.82 0.94,0.44 1.85,0.92 2.65,1.59 0.3,0.28 0.33,0.7 0.51,1.05 0.14,0.65 0.1,1.33 0.15,2 -0.07,0.62 0.01,1.26 -0.18,1.86 -0.08,0.42 -0.24,0.83 -0.47,1.19 -0.3,0.17 -0.4,0.52 -0.65,0.74 -1.1,0.96 -2.27,1.87 -3.53,2.62 -0.67,0.24 -1.34,0.5 -2.05,0.59 -1.51,0.31 -3.06,0.28 -4.59,0.34 l -3.26,-0.07 c -0.35,-0.07 -0.76,-0.07 -1.05,-0.32 l -0.1,-0.04 c -0.19,-0.23 -0.5,-0.35 -0.63,-0.64 -0.3,-0.64 -0.73,-1.25 -0.79,-1.97 -0.09,-0.35 -0.01,-0.75 0.26,-1.01 0.25,-0.38 0.55,-0.73 0.85,-1.07 0.37,-0.53 0.54,-1.17 0.58,-1.8 l -0.02,0.02 c -0.07,-0.38 0.01,-0.84 -0.3,-1.14 l -0.38,-0.3 v 0 L 201.29,52.3 201,52.27 200.9,52.25 c -0.56,0.07 -1.15,0.11 -1.65,0.42 -0.44,0.38 -1.03,0.67 -1.21,1.28 -0.23,0.55 -0.56,1.09 -0.55,1.7 -0.17,1.21 -0.05,2.42 0.03,3.63 0.21,0.57 0.31,1.21 0.74,1.68 0.44,0.71 1.04,1.3 1.61,1.92 0.69,0.57 1.49,1.02 2.37,1.2 1.13,0.3 2.29,0.31 3.45,0.37 2.48,-0.33 4.99,-0.52 7.41,-1.17 1.52,-0.38 3.05,-0.84 4.39,-1.67 0.6,-0.41 1.1,-0.94 1.62,-1.44 0.69,-0.87 1.31,-1.8 1.7,-2.85 0.38,-0.78 0.53,-1.65 0.77,-2.48 0.08,-0.46 0.26,-0.9 0.23,-1.38 0,-0.51 0.16,-1.01 0.03,-1.52 -0.12,-0.77 -0.25,-1.54 -0.52,-2.27 -0.34,-0.44 -0.49,-0.98 -0.85,-1.41 -0.47,-0.77 -1.19,-1.34 -1.86,-1.94 -1.31,-0.97 -2.8,-1.69 -4.29,-2.34 -2.68,-0.88 -5.34,-1.8 -7.99,-2.76 l -3.18,-1.47 c -0.85,-0.59 -1.8,-1.08 -2.47,-1.9 -0.23,-0.29 -0.54,-0.52 -0.64,-0.9 -0.14,-0.38 -0.32,-0.8 -0.18,-1.22 0.12,-0.32 -0.06,-0.68 0.11,-0.99 0.08,-0.86 0.39,-1.68 0.78,-2.45 0.25,-0.65 0.7,-1.2 1.05,-1.8 0.53,-0.64 1.03,-1.31 1.65,-1.87 0.86,-0.89 1.84,-1.64 2.75,-2.48 0.99,-0.68 1.96,-1.47 3.15,-1.75 1.26,-0.4 2.6,-0.37 3.91,-0.47 -0.02,-2.33 0,0 -0.02,-2.33 -1.84,-0.02 -3.79,-0.14 -5.4,0.13 z" />
	<path
   id="path89-6_2_"
   d="m 11.79,29.24 c 0.02,-0.14 0.06,-0.17 0.09,-0.08 0.03,0.08 0.33,0.15 0.65,0.17 0.51,0.03 0.74,-0.03 1.9,-0.57 1.94,-0.83 3.2,-2.87 2.98,-4.85 -0.04,-0.27 0.07,-0.5 0.12,-0.52 1.93,0.17 3.69,2.05 4.66,1.01 0.31,-0.4 0.64,-2.1 0.61,-3.09 -0.02,-0.39 0.03,-0.74 0.1,-0.77 0.07,-0.03 1.29,-0.01 2.71,0.05 3.66,0.16 4.09,0.4 4.42,2.53 0.34,2.2 0.26,6.76 -0.17,9.93 -0.26,1.89 -0.27,3.05 -0.04,3.55 0.09,0.2 0.04,0.34 -0.22,0.61 -1.29,1.36 -6.44,3.67 -8.77,3.93 -0.98,0.11 -1.08,0.03 -2.01,-1.76 -1.08,-2.05 -1.67,-2.89 -3.81,-5.41 -0.98,-1.16 -2.01,-2.4 -2.27,-2.75 -0.55,-0.78 -0.99,-1.68 -0.95,-1.98 z" />
	<path
   id="path91-2_2_"
   d="m 25.67,77.65 c 0.16,-0.18 1.08,-0.86 2.04,-1.51 0.97,-0.65 3.3,-2.25 5.2,-3.55 l 3.44,-2.37 1.15,1.21 c 0.63,0.67 0.94,1.49 0.9,1.53 -0.57,0.53 -10.55,7.06 -10.9,7.15 -0.31,0.08 -0.76,-0.2 -1.23,-0.74 -0.9,-1.03 -0.99,-1.29 -0.6,-1.72 z" />
	<path
   id="path93-9_2_"
   d="m 21.28,56.07 c 0.06,-0.5 0.34,-1.29 0.61,-1.75 0.44,-0.75 0.67,-0.89 2.16,-1.37 2.96,-0.95 6.41,-0.41 8.54,1.34 l 0.85,0.7 c 0.08,0.88 -0.09,1.68 -0.3,2.52 L 32.52,56.89 C 29.8,54.66 24.07,54.6 22,56.58 c -0.79,0.84 -0.89,0.78 -0.72,-0.51 z" />
	<path
   id="path95-1_2_"
   d="m 21.61,59.65 c 0.5,-1.78 2.58,-2.48 3.91,-2.72 2.85,-0.53 7.43,1.48 7.89,3.16 0.06,0.35 0.29,2.25 0.04,2.79 -0.62,1.36 0.33,2.88 1.8,5.2 0.19,0.3 -1.59,1.29 -4.36,3.21 -1.91,1.32 -4.05,2.83 -4.76,3.34 l -1.65,1.1 -0.56,-0.76 C 23.46,74.34 23.68,73.66 23.51,71.78 23.26,69 22.95,67.32 22.17,64.33 21.61,62.26 21.3,60.74 21.61,59.65 Z" />
	<path
   id="path97-2_2_"
   d="m 22.22,50.58 c -0.04,-0.39 -0.32,-1.29 -0.61,-2 -0.3,-0.71 -0.47,-1.4 -0.38,-1.53 0.09,-0.13 0.72,-0.27 1.41,-0.3 1.38,-0.08 7.5,-2.55 9,-3.64 l 0.82,-0.59 0.22,1.11 c 0.12,0.61 0.24,1.91 0.27,2.89 0.03,0.98 0.25,2.56 0.5,3.51 0.86,3.27 0.9,3.11 -0.62,2.21 -2.5,-1.5 -6.28,-1.84 -8.81,-0.79 -1.55,0.65 -1.65,0.6 -1.8,-0.87 z" />
	<path
   id="path99-7_2_"
   d="m 31.05,37.93 c -0.09,-0.17 -0.19,-0.27 -0.23,-0.23 -1.35,1.49 -2.42,2.15 -5.44,3.34 -2.65,1.05 -4.01,1.38 -5.16,1.25 -0.37,-0.04 -0.63,-0.01 -0.61,0.06 0.03,0.07 0.39,0.75 0.81,1.51 0.42,0.76 0.77,1.39 0.77,1.41 0.04,0.1 1.05,0.09 1.81,-0.02 2.04,-0.3 5.13,-1.52 7.06,-2.79 0.98,-0.65 1.29,-0.96 1.67,-1.66 L 32,40.3 31.6,39.27 C 31.39,38.7 31.14,38.09 31.05,37.93 Z" />
	<path
   id="path101-0_2_"
   d="M 3.56,17.63 C 4.03,17.6 4.82,17.22 4.9,16.99 4.98,16.75 4.43,15.52 4.09,15.18 3.95,15.05 3.5,14.79 3.09,14.61 2.68,14.43 2.36,14.25 2.37,14.2 2.44,14.03 4,14.69 4.6,15.15 c 0.81,0.61 1.36,0.77 2.1,0.61 0.86,-0.19 2,-0.19 1.73,0 -0.3,0.22 -0.34,0.54 -0.09,0.84 0.31,0.38 0.62,0.25 0.61,-0.25 l -0.01,-0.42 0.37,0.44 c 0.3,0.35 0.36,0.48 0.31,0.67 -0.1,0.37 0.82,2.02 1.42,2.54 0.91,0.8 1.29,0.92 2.93,0.93 0.84,0.01 1.54,0.04 1.56,0.09 0.02,0.04 0.06,0.36 0.09,0.7 0.04,0.48 0,0.65 -0.18,0.73 -0.13,0.06 -0.26,0.21 -0.3,0.34 -0.12,0.45 0.63,0.53 0.8,0.08 0.11,-0.3 0.59,0.48 0.65,1.06 0.09,0.83 -0.01,1.31 -0.29,1.36 -0.14,0.03 -0.37,0.23 -0.53,0.46 -0.21,0.32 -0.25,0.49 -0.14,0.72 0.16,0.34 0.03,0.72 -0.34,1.01 -0.14,0.1 -0.53,0.42 -0.88,0.7 -1.08,0.88 -2.6,1.21 -3.16,0.68 -0.31,-0.28 -0.29,-0.41 0.14,-1.03 0.13,-0.2 0.11,-0.25 -0.54,-1.2 -0.38,-0.55 -0.67,-1.03 -0.66,-1.06 0.01,-0.03 0.53,-0.11 1.11,-0.26 1.32,-0.35 1.48,-0.35 1.53,-0.7 0.03,-0.23 -0.26,-0.84 -0.42,-0.92 -0.23,-0.11 -1.06,0.23 -0.98,0.4 0.03,0.06 -0.29,0.27 -0.75,0.48 L 9.88,24.52 8.43,22.95 C 7.46,21.9 6.63,20.99 6.6,20.93 6.56,20.85 6.88,20.66 7.47,20.38 8.52,19.9 8.62,19.76 8.51,18.95 8.45,18.56 8.39,18.41 8.23,18.32 8.11,18.25 7.64,17.89 7.17,17.52 6.33,16.85 5.5,16.39 5.44,16.56 c -0.02,0.05 0.14,0.19 0.35,0.31 0.61,0.35 1.75,1.38 1.9,1.72 0.2,0.45 -0.01,0.75 -0.7,0.99 C 6.11,19.89 5.88,19.92 5.81,19.76 5.77,19.68 5.51,19.56 5.22,19.49 4.8,19.4 4.59,19.24 4.11,18.69 3.13,17.56 3.18,17.66 3.56,17.63 Z m 10.8,4.36 c 0.34,0.09 0.47,-0.28 0.26,-0.74 -0.19,-0.42 -0.5,-0.48 -0.66,-0.14 -0.13,0.27 0.11,0.8 0.4,0.88 z" />
	<path
   id="path103-9_2_"
   d="m 15.04,19.67 c 0.01,-0.17 0.21,-0.93 0.44,-1.68 l 0.42,-1.36 0.49,-0.1 c 1.08,-0.23 2.81,-0.81 3,-1 0.31,-0.32 0.36,-0.69 0.27,-2.06 -0.07,-1.09 -0.15,-1.43 -0.49,-2.19 -0.34,-0.77 -0.46,-0.93 -0.8,-1.12 C 17.87,9.89 17.75,9.63 17.78,8.94 17.85,7.91 17.83,7.87 18.64,7.66 L 19.05,7.38 C 19.47,7.1 19.59,6.89 19.77,6.1 19.84,5.81 19.88,5.74 19.9,5.91 c 0.01,0.14 0.13,1.85 0.27,3.81 0.27,3.81 0.67,7.33 0.9,7.83 0.08,0.17 0.22,0.33 0.31,0.37 0.12,0.04 0.27,0.37 0.5,1.09 0.28,0.86 0.33,1.26 0.3,2.4 -0.04,1.48 -0.21,2 -0.74,2.25 -0.27,0.13 -0.52,0.08 -1.29,-0.24 -0.71,-0.36 -1.5,-0.66 -2.14,-0.82 -0.89,-0.23 -1.18,-0.37 -1.37,-0.64 -0.43,-0.77 -0.34,-1.4 0.1,-1.76 0.43,-0.24 0.43,-0.25 0.08,-0.18 -0.33,0.06 -1.77,0.08 -1.78,0.02 -0.01,-0.04 -0.01,-0.2 0,-0.37 z m 4.19,-1.58 c 0.3,0.11 0.38,0.02 0.36,-0.44 -0.02,-0.46 -0.28,-0.77 -0.56,-0.65 -0.32,0.16 -0.18,0.95 0.2,1.09 z M 18.94,9.72 C 19.28,9.85 19.57,9.78 19.59,9.56 19.6,9.49 19.54,9.42 19.46,9.41 19.38,9.4 19.3,9.29 19.28,9.16 19.24,8.87 18.86,8.56 18.65,8.66 18.27,8.83 18.46,9.55 18.94,9.72 Z" />
	<path
   id="path105-3_2_"
   d="m 22.89,19.76 c -0.01,-0.07 -0.14,-0.54 -0.27,-1.04 -0.11,-0.74 -0.38,-1.83 -0.04,-2.29 0.89,-1.15 -0.4,-0.43 1.85,-0.98 0.93,-0.22 1.05,-0.27 1.35,-0.59 0.38,-0.41 0.58,-1.26 0.6,-2.5 C 26.4,11.24 25.96,10.21 25.15,9.5 24.59,9.01 24.5,8.76 24.59,8.02 c 0.05,-0.4 0.12,-0.49 0.51,-0.67 0.71,-0.33 1.22,-0.08 1.78,0.88 0.31,0.52 0.45,0.54 0.59,0.78 0.21,0.39 0.3,0.27 0.38,1.96 0.05,1.07 0.08,2.48 0.08,3.14 0,0.66 0.02,1.5 0.06,1.86 0.06,0.59 0.09,0.66 0.31,0.75 0.22,0.08 0.26,0.21 0.42,1.23 0.19,1.23 0.29,1.54 0.51,1.57 0.16,0.02 0.37,0.43 0.39,0.74 0.02,0.36 -0.18,0.31 -0.36,-0.09 -0.12,-0.26 -0.26,-0.39 -0.44,-0.4 -0.33,-0.02 -0.7,0.14 -0.69,0.31 0.01,0.07 -0.43,0.08 -0.97,0.01 -0.54,-0.06 -1.72,-0.13 -2.62,-0.15 -0.89,-0.04 -1.64,-0.12 -1.65,-0.18 z m 2.54,-2.2 c 0.25,-0.08 0.3,-0.16 0.26,-0.41 -0.08,-0.44 -0.29,-0.68 -0.53,-0.62 -0.34,0.08 -0.44,0.44 -0.23,0.8 0.15,0.28 0.24,0.32 0.5,0.23 z m 0.11,-8.71 c 0.11,0.03 0.28,0.03 0.38,-0.01 0.1,-0.05 0.25,-0.02 0.33,0.05 0.19,0.18 0.46,0.04 0.44,-0.23 C 26.68,8.52 26.58,8.42 26.43,8.39 26.3,8.36 26.18,8.26 26.17,8.17 26.15,7.91 25.8,7.7 25.57,7.8 25.13,8 25.11,8.69 25.54,8.85 Z" />
	<path
   id="path107-6_2_"
   d="m 25.89,6.25 c 0.81,-0.38 1.4,-1 1.65,-1.72 0.13,-0.35 0.23,-1.29 0.24,-1.21 0.01,0.08 0.03,1.85 0.04,3.07 L 27.84,8.61 27.3,7.76 C 26.57,6.61 26.32,6.62 25.8,6.56 L 25.35,6.51 Z" />
	<path
   id="path109-0_2_"
   d="m 0.01,15.36 c -0.03,-0.16 -0.02,-0.3 0.02,-0.35 0.03,-0.05 1.16,-0.61 1.3,-0.65 0.07,-0.02 0.12,-0.01 0.39,0.12 0.17,0.08 0.44,0.19 0.6,0.26 0.57,0.23 0.79,0.36 1,0.56 0.23,0.21 1.03,1.15 1.08,1.26 0.02,0.06 -0.02,0.22 -0.08,0.29 C 4.17,17.04 3.7,17.17 3.26,17.15 3.02,17.14 2.29,16.86 1.42,16.44 0.62,16.06 0.42,15.95 0.26,15.82 0.13,15.69 0.04,15.53 0.01,15.36 Z" />
	<path
   id="path111-6_2_"
   d="m 4.76,14.81 c 0.01,0 0.14,0 0.29,0.01 0.15,0.01 0.42,0 0.6,-0.01 0.47,-0.03 1.03,-0.01 1.36,0.05 0.26,0.06 0.27,0.02 -0.14,0.33 C 6.72,15.3 6.55,15.42 6.47,15.45 6.36,15.5 6.33,15.5 6.16,15.5 5.89,15.49 5.55,15.36 5.2,15.14 4.93,14.97 4.73,14.82 4.76,14.81 Z" />
	<path
   id="path113-2_2_"
   d="m 2.4,13.63 c 0.04,-0.01 0.42,0 0.76,0.03 0.45,0.05 0.65,0.11 0.82,0.25 0.13,0.11 0.28,0.29 0.38,0.44 L 4.42,14.44 4.27,14.33 C 3.99,14.12 3.7,14.01 2.93,13.79 2.48,13.69 2.37,13.65 2.4,13.63 Z" />
	<path
   id="path115-6_2_"
   d="m 15.51,15.74 c 0.19,-0.77 0.04,-1.49 -0.01,-2.39 -0.24,-0.98 -0.17,-1.53 -0.36,-2.18 -0.14,-0.38 -0.17,-0.48 -0.13,-0.5 0.01,-0.01 0.08,0 0.15,0.01 0.34,-0.13 0.5,-0.02 0.93,-0.15 1.26,-0.34 1.47,-0.36 1.71,-0.17 0.16,0.13 0.28,0.3 0.44,0.65 0.28,0.61 0.43,1.24 0.48,1.98 0.06,0.97 0.02,1.7 -0.12,2.04 -0.2,0.34 -0.71,0.44 -0.89,0.52 -0.07,0.02 -0.38,0.1 -0.69,0.18 -1.3,0.35 -1.56,0.41 -1.57,0.37 -0.02,-0.01 0.01,-0.17 0.06,-0.36 z" />
	<path
   id="path117-1_2_"
   d="m 15.3,9.41 c 0.12,-0.67 0.05,-1.26 0.22,-1.78 0.58,-1.32 0.3,-0.35 0.8,-2.1 0.1,-0.18 0.09,-0.4 -0.03,-0.91 C 16.25,4.46 16.22,4.27 16.21,4.19 16.4,3.84 16.28,4.06 16.48,3.69 16.51,3.62 16.65,3.38 16.79,3.16 16.92,2.94 17.07,2.7 17.11,2.62 17.21,2.42 17.23,2.4 17.35,2.35 17.51,2.28 18.78,1.9 18.98,1.86 l 0.08,-0.01 0.09,0.22 c 0.13,0.31 0.23,0.67 0.25,0.87 0.02,0.22 0.01,0.33 -0.13,1.08 -0.07,0.34 -0.16,0.87 -0.22,1.17 -0.16,0.9 -0.22,1.02 -0.58,1.25 -0.11,0.07 -0.23,0.14 -0.26,0.15 -0.27,0.08 -0.11,0.05 -0.47,0.1 l -0.12,0.05 c -0.45,0.17 -0.44,0.3 -0.47,0.51 -0.21,1.1 -0.08,0.5 -0.1,1.94 -0.03,0.09 -0.82,0.37 -1.32,0.45 -0.18,0.03 -0.51,0.11 -0.52,0.09 0.07,-0.11 0.07,-0.23 0.09,-0.32 z" />
	<path
   id="path119-8_2_"
   d="m 22.83,14.95 c 0.04,-0.03 0.08,-0.09 0.1,-0.11 0.02,-0.02 0.03,-0.08 0.02,-0.15 -0.02,-0.13 0.07,-0.29 0.15,-0.53 0.21,-0.92 0.07,-1.89 -0.14,-2.7 -0.12,-0.41 -0.16,-0.58 -0.2,-0.89 -0.02,-0.15 -0.06,-0.39 -0.09,-0.53 -0.06,-0.26 -0.06,-0.35 0,-0.38 0.05,-0.02 0.59,-0.14 1.17,-0.25 0.45,-0.09 0.45,-0.09 0.57,-0.04 0.21,0.08 0.46,0.46 0.73,0.8 0.14,0.17 0.32,0.54 0.38,0.79 0.15,0.55 0.14,1.95 -0.01,2.68 -0.1,0.5 -0.33,0.84 -0.59,0.97 l -0.52,0.17 c -0.09,0.04 -0.7,0.17 -1.09,0.23 -0.35,0.06 -0.54,0.06 -0.55,0.03 0.01,0 0.03,-0.05 0.07,-0.09 z" />
	<path
   id="path121-7_2_"
   d="M 22.69,8.16 C 22.68,7.85 22.72,7.62 22.83,7.24 22.88,7.08 22.92,6.91 22.92,6.85 22.92,6.79 22.93,6.69 22.95,6.62 22.92,6.13 23.09,5.87 23.31,5.46 23.94,4.95 24.36,4.35 24.55,3.72 24.7,3.34 24.72,3.16 24.66,2.8 24.61,2.51 24.63,2.41 24.77,2.04 24.91,1.68 25.16,1.27 25.57,0.72 l 0.3,-0.4 0.47,-0.12 C 26.6,0.13 26.9,0.06 27.02,0.03 L 27.22,0 27.26,0.2 c 0.06,0.28 0.11,0.79 0.1,1.06 C 27.35,1.53 27.29,1.82 27.13,2.42 27.06,2.67 26.92,3.23 26.81,3.65 26.7,4.08 26.58,4.51 26.53,4.62 26.37,5 26.18,5.14 25.26,5.55 24.93,5.69 24.36,6.04 24.18,6.31 l -0.1,0.22 c -0.07,0.42 -0.17,0.61 -0.17,0.95 0.03,0.29 0.19,0.91 0.2,1.15 -1.14,0.19 -0.8,0.09 -1.46,0.28 0,-0.29 0.04,-0.42 0.04,-0.75 z" />
</g>
</svg>
