<?xml version="1.0" standalone="no"?>
<!DOCTYPE svg PUBLIC "-//W3C//DTD SVG 20010904//EN"
 "http://www.w3.org/TR/2001/REC-SVG-20010904/DTD/svg10.dtd">
<svg version="1.0" xmlns="http://www.w3.org/2000/svg"
 width="700.000000pt" height="700.000000pt" viewBox="0 0 700.000000 700.000000"
 preserveAspectRatio="xMidYMid meet">
<metadata>
Created by potrace 1.14, written by Peter Selinger 2001-2017
</metadata>
<g transform="translate(0.000000,700.000000) scale(0.100000,-0.100000)"
fill="#000000" stroke="none">
<path d="M882 4559 c-22 -9 -36 -32 -46 -81 -3 -15 -12 -33 -20 -41 -17 -17
-36 -81 -27 -94 3 -5 13 -9 21 -8 11 0 14 9 12 31 -3 27 2 35 32 53 29 18 37
31 47 75 14 65 11 76 -19 65z"/>
<path d="M660 4514 c-23 -7 -39 -38 -45 -85 -3 -23 -10 -49 -15 -59 -14 -27
-12 -60 4 -60 15 0 38 23 35 36 -4 24 2 44 15 44 7 0 18 6 24 13 13 16 23 82
16 102 -6 15 -8 16 -34 9z"/>
<path d="M888 4419 c-18 -19 -22 -29 -12 -29 7 0 19 -9 26 -20 19 -30 23 -25
23 30 1 28 -2 49 -5 49 -3 -1 -17 -14 -32 -30z"/>
<path d="M682 4371 c-35 -30 -35 -43 -1 -91 20 -27 31 -100 20 -119 -5 -7 -28
-18 -52 -25 -39 -12 -45 -18 -56 -54 -12 -43 -5 -59 21 -49 9 4 12 -2 9 -16
-5 -31 5 -40 69 -64 40 -14 60 -17 67 -10 16 16 13 108 -4 141 -14 27 -34 168
-38 273 -1 24 -2 43 -2 43 0 -1 -15 -13 -33 -29z m15 -57 c-9 -9 -28 6 -21 18
4 6 10 6 17 -1 6 -6 8 -13 4 -17z m3 -219 c0 -8 -2 -15 -4 -15 -2 0 -6 7 -10
15 -3 8 -1 15 4 15 6 0 10 -7 10 -15z"/>
<path d="M853 4373 c-20 -7 -15 -44 8 -69 15 -16 21 -36 22 -68 1 -54 -12 -72
-58 -80 -39 -8 -50 -30 -40 -82 7 -37 1 -35 118 -38 67 -2 76 1 57 20 -5 5
-11 18 -13 29 -1 11 -6 25 -10 32 -4 6 -9 54 -11 106 -3 73 -8 101 -22 121
-21 28 -33 35 -51 29z m35 -31 c2 -7 -3 -12 -12 -12 -9 0 -16 7 -16 16 0 17
22 14 28 -4z m-23 -240 c-8 -8 -25 10 -19 20 4 6 9 5 15 -3 4 -7 6 -15 4 -17z"/>
<path d="M6628 4365 c-51 -19 -73 -42 -91 -95 l-15 -45 -4 43 -3 42 -91 -44
c-50 -25 -113 -55 -140 -66 -62 -27 -110 -64 -136 -104 l-20 -31 4 33 c3 17 2
32 -2 32 -10 0 -54 -32 -90 -66 l-36 -34 -2 26 c-2 31 -19 64 -32 64 -6 0 -11
-20 -11 -45 -1 -25 -3 -49 -4 -55 -1 -5 -3 -13 -4 -16 0 -3 -17 11 -36 32 -36
38 -55 41 -36 6 6 -12 11 -31 11 -43 0 -21 2 -21 78 -15 42 4 93 9 112 12 53
7 241 54 275 68 100 42 139 55 120 40 -28 -23 -149 -79 -222 -103 -71 -24
-205 -48 -283 -52 -72 -3 -78 -6 -85 -40 -4 -16 -14 -33 -23 -39 -15 -8 -15
-9 1 -10 11 0 34 15 53 34 l34 34 10 -37 c5 -20 10 -46 10 -58 0 -13 4 -23 10
-23 18 0 42 49 36 74 l-6 24 53 -28 c45 -24 87 -35 121 -31 5 1 1 10 -9 21
-27 29 -13 34 37 13 49 -22 86 -22 161 2 102 33 271 126 306 169 12 14 10 16
-10 16 -51 0 -51 17 0 22 58 6 81 23 118 85 31 53 37 87 22 130 -21 64 -97 89
-181 58z"/>
<path d="M798 4313 c-14 -3 -15 -10 -6 -40 5 -20 8 -52 5 -70 -5 -28 -3 -33
14 -33 10 0 28 9 39 20 16 16 19 28 14 57 -11 67 -22 78 -66 66z"/>
<path d="M613 4288 c-21 -5 -30 -13 -27 -22 3 -8 7 -38 8 -68 3 -52 4 -53 32
-50 47 6 57 20 51 75 -5 61 -21 77 -64 65z"/>
<path d="M3247 4146 c-83 -83 -94 -106 -67 -139 17 -20 21 -21 51 -10 19 8 37
9 42 4 19 -19 24 -149 22 -516 -1 -222 2 -398 7 -422 10 -43 31 -59 61 -47 22
8 27 42 32 212 2 79 5 145 7 147 7 8 215 -99 347 -178 137 -83 182 -100 196
-76 11 17 -3 55 -32 89 -45 54 -230 171 -353 223 -19 9 -57 25 -84 36 -27 12
-47 23 -45 25 2 2 53 29 113 59 133 69 202 121 278 211 69 83 100 142 106 207
10 107 -48 158 -208 184 -19 3 -42 8 -50 10 -8 2 -32 6 -54 10 -21 3 -41 7
-45 9 -3 2 -28 7 -56 10 -27 3 -61 8 -75 10 -14 3 -46 8 -72 11 l-48 5 -73
-74z m288 -60 c79 -6 161 -26 243 -59 50 -20 57 -26 54 -47 -4 -40 -93 -179
-143 -224 -46 -40 -188 -118 -241 -131 -27 -7 -28 -6 -29 36 -1 24 -2 69 -4
99 -12 226 -15 322 -10 330 3 5 18 7 33 5 15 -2 59 -7 97 -9z"/>
<path d="M264 4182 c6 -10 1 -11 -17 -6 -29 7 -67 -3 -67 -16 0 -19 82 -52
103 -43 19 9 19 10 2 26 -10 10 -14 21 -10 25 8 8 35 -26 35 -44 0 -7 -9 -15
-20 -19 -16 -5 -18 -9 -7 -25 18 -29 61 -44 86 -30 28 15 27 24 -11 55 -18 15
-24 22 -13 17 31 -16 65 -51 65 -68 0 -8 -11 -20 -25 -26 -30 -14 -30 -14 17
-67 42 -45 53 -49 79 -25 19 17 39 12 39 -10 0 -8 -16 -17 -35 -20 l-36 -7 20
-28 c14 -20 17 -31 9 -39 -7 -7 -4 -13 11 -21 16 -9 28 -8 53 5 39 20 58 38
58 56 0 7 6 22 14 33 18 27 4 67 -21 58 -15 -5 -16 -3 -5 8 6 7 12 21 12 31 0
10 -6 18 -12 19 -96 4 -128 23 -149 87 -8 24 -14 31 -20 21 -6 -11 -9 -10 -15
4 -4 12 -17 17 -41 17 -20 0 -52 10 -71 22 -20 12 -32 16 -28 10z m306 -188
c0 -8 -5 -12 -10 -9 -6 4 -8 11 -5 16 9 14 15 11 15 -7z"/>
<path d="M2738 4177 c-36 -28 -172 -318 -284 -606 -36 -91 -80 -191 -98 -221
-19 -30 -50 -89 -70 -130 -20 -41 -56 -113 -81 -160 -25 -47 -45 -93 -45 -103
0 -23 45 -40 70 -27 11 6 73 118 140 253 67 133 124 245 128 249 4 4 32 10 62
13 54 5 122 12 190 20 106 14 130 15 130 9 0 -3 14 -66 31 -138 17 -72 33
-144 36 -161 11 -68 59 -120 105 -113 32 4 29 33 -21 216 -22 81 -42 161 -45
177 -5 36 -43 206 -50 226 -7 18 -15 63 -22 114 -5 45 -74 280 -98 337 -9 21
-25 42 -35 48 -24 12 -22 12 -43 -3z m33 -223 c8 -22 23 -84 55 -229 3 -11 7
-48 11 -81 l6 -62 -34 -10 c-59 -19 -259 -37 -259 -23 0 43 185 431 205 431 3
0 10 -12 16 -26z"/>
<path d="M324 4169 c-3 -5 7 -9 22 -9 15 0 24 3 20 7 -11 11 -35 12 -42 2z"/>
<path d="M1724 4125 c-145 -49 -269 -143 -321 -242 -26 -50 -35 -74 -49 -128
-8 -33 -34 -199 -39 -250 -4 -33 -8 -71 -10 -85 -3 -13 -7 -67 -11 -120 -5
-90 -4 -100 21 -155 57 -124 128 -195 221 -219 131 -33 266 20 419 166 123
117 200 238 175 278 -11 17 -29 3 -116 -89 -222 -236 -402 -308 -520 -207 -70
60 -106 159 -99 272 4 66 15 167 21 199 3 11 7 36 10 55 17 110 56 216 102
277 56 75 233 158 361 169 51 5 71 3 79 -7 6 -8 22 -26 34 -41 13 -16 34 -29
48 -30 21 -3 25 1 26 22 1 31 -22 78 -50 102 -71 63 -180 75 -302 33z"/>
<path d="M4705 4128 c-4 -10 -20 -57 -35 -105 -28 -86 -29 -88 -67 -99 l-39
-12 -74 89 c-40 49 -74 88 -75 86 -1 -1 8 -51 20 -112 l23 -110 -32 -26 -31
-26 -90 32 c-49 18 -99 37 -110 41 -20 7 -16 2 93 -116 46 -49 47 -53 31 -97
-10 -30 -14 -32 -121 -52 -102 -20 -142 -31 -108 -31 8 0 57 -14 111 -31 97
-31 97 -32 107 -70 l10 -39 -90 -75 c-98 -83 -101 -80 43 -50 92 20 94 19 123
-11 l24 -27 -33 -91 c-18 -50 -36 -100 -41 -111 l-7 -20 23 20 c14 11 40 34
60 52 81 73 95 83 110 77 8 -4 24 -9 36 -11 18 -4 24 -19 39 -101 9 -54 19
-106 22 -116 3 -12 18 22 41 91 l35 111 39 6 c43 7 42 8 133 -102 27 -34 51
-60 52 -58 2 2 -7 51 -19 110 l-22 107 27 25 c23 21 34 24 60 18 17 -3 38 -10
47 -15 24 -13 132 -50 136 -46 2 1 -9 16 -25 32 -115 124 -121 133 -109 167
14 44 16 46 68 53 25 3 52 8 60 10 8 2 33 6 54 10 39 5 54 12 45 18 -2 2 -50
18 -106 36 -92 29 -103 35 -103 56 0 13 -3 30 -6 38 -3 10 23 39 81 87 47 40
84 74 83 75 -2 2 -52 -8 -112 -20 l-108 -23 -24 26 c-13 15 -24 31 -24 37 0
12 26 88 59 169 7 16 10 31 7 33 -3 3 -26 -15 -53 -39 -123 -113 -108 -105
-157 -84 -31 13 -33 17 -45 92 -19 117 -27 143 -36 122z"/>
<path d="M796 4022 c-2 -4 -7 -29 -11 -55 -4 -27 -14 -51 -21 -54 -8 -3 -32 2
-54 11 -56 22 -65 20 -66 -14 -3 -56 -68 -120 -121 -120 -13 0 -23 -6 -23 -13
0 -7 35 -57 79 -111 43 -54 89 -119 101 -143 12 -24 28 -47 36 -50 22 -8 144
33 203 69 l55 33 2 55 c14 277 11 347 -14 372 -5 5 -36 12 -68 14 -33 3 -67 7
-76 9 -10 2 -20 0 -22 -3z"/>
<path d="M5723 3988 c-67 -11 -123 -46 -198 -122 -84 -85 -135 -178 -135 -243
0 -41 5 -49 72 -118 40 -41 76 -75 80 -75 4 0 26 -13 50 -29 24 -16 97 -49
163 -75 191 -73 223 -92 231 -133 4 -19 4 -54 1 -79 -4 -37 -12 -52 -48 -84
-71 -64 -99 -73 -235 -78 -113 -4 -123 -3 -143 17 -32 32 -37 68 -13 100 49
66 16 129 -49 95 -34 -17 -53 -64 -51 -131 1 -64 21 -103 75 -147 36 -29 44
-31 120 -31 124 0 239 22 312 58 115 57 178 236 121 345 -35 68 -106 112 -284
174 -150 52 -222 89 -257 129 -23 28 -26 39 -20 73 10 67 46 125 117 191 87
81 131 102 216 104 18 1 22 7 22 31 0 24 -4 30 -22 31 -13 1 -36 2 -53 3 -16
1 -49 -2 -72 -6z"/>
<path d="M980 3539 c-43 -38 -195 -99 -247 -99 -27 0 -27 0 -6 -46 17 -35 19
-36 63 -31 91 10 225 79 236 121 3 13 -1 36 -8 50 l-14 27 -24 -22z"/>
<path d="M1024 3420 c-18 -18 -192 -89 -234 -96 -45 -7 -46 -10 -25 -77 20
-67 22 -69 53 -53 47 23 149 19 216 -8 l58 -25 -6 27 c-10 41 -24 120 -31 185
-6 57 -12 66 -31 47z"/>
<path d="M830 3159 c-42 -12 -80 -51 -80 -84 l0 -25 43 23 c60 32 159 29 226
-6 l49 -25 4 29 c4 24 -1 34 -23 50 -66 47 -139 60 -219 38z"/>
<path d="M813 3035 c-37 -16 -62 -58 -57 -99 1 -15 12 -68 23 -116 22 -94 28
-131 30 -196 0 -22 7 -48 14 -57 11 -16 25 -9 151 77 76 53 141 97 143 100 2
2 -7 26 -21 52 -20 39 -25 62 -23 110 2 73 -8 88 -78 120 -57 27 -132 31 -182
9z"/>
<path d="M1095 2659 c-54 -39 -63 -46 -155 -109 -44 -30 -80 -60 -80 -66 0
-19 48 -57 62 -48 7 4 75 48 151 97 l138 90 -24 31 c-32 40 -44 41 -92 5z"/>
</g>
</svg>
